<svg width="18" height="14" viewBox="0 0 18 14" fill="none" xmlns="http://www.w3.org/2000/svg">
<path fill-rule="evenodd" clip-rule="evenodd" d="M10.2929 13.7078C9.90237 13.3173 9.90237 12.6841 10.2929 12.2936L14.5858 8.00073H1C0.447715 8.00073 0 7.55302 0 7.00073C0 6.44845 0.447715 6.00073 1 6.00073H14.5858L10.2929 1.70784C9.90237 1.31731 9.90237 0.68415 10.2929 0.293626C10.6834 -0.0968987 11.3166 -0.0968987 11.7071 0.293626L17.7071 6.29363C17.8902 6.47668 17.9874 6.71306 17.9989 6.95276C17.9996 6.96874 18 6.98474 18 7.00073M17.9241 7.38352C17.8753 7.50146 17.803 7.61196 17.7071 7.70784L11.7071 13.7078C11.3166 14.0984 10.6834 14.0984 10.2929 13.7078M17.9241 7.38352C17.9719 7.26829 17.9988 7.14219 18 7.00996L17.9241 7.38352Z" fill="#C8C7CC"/>
</svg>
