<svg width="30" height="30" viewBox="0 0 30 30" fill="none" xmlns="http://www.w3.org/2000/svg">
<rect width="29.975" height="30" fill="#D8D8D8" fill-opacity="0.01"/>
<path d="M25.8917 20.8804C24.0702 19.3304 22.2216 18.3914 20.4225 19.9392L19.3482 20.8746C18.5622 21.5536 17.1007 24.7264 11.4503 18.2591C5.80113 11.8001 9.16288 10.7945 9.95008 10.1213L11.0303 9.18468C12.82 7.63344 12.1446 5.68064 10.8538 3.67046L10.0748 2.45289C8.77811 0.447396 7.3661 -0.869695 5.57167 0.679204L4.6021 1.52214C3.80902 2.09698 1.59216 3.96549 1.05442 7.5152C0.407252 11.7744 2.44878 16.6517 7.12606 22.0032C11.7975 27.357 16.3712 30.0462 20.7037 29.9994C24.3043 29.9608 26.4788 28.0384 27.1589 27.3395L28.132 26.4954C29.9218 24.9476 28.8098 23.3718 26.9871 21.8182L25.8917 20.8804Z" fill="#00893D"/>
</svg>
