<svg width="22" height="32" viewBox="0 0 22 32" fill="none" xmlns="http://www.w3.org/2000/svg">
<path d="M11 0.320068C14.0477 0.320068 16.6433 1.42288 18.7856 3.62852C20.9289 5.8345 22 8.49245 22 11.6017C22 14.1125 21.2613 16.3829 19.7828 18.4129L12.8562 30.6977C12.7992 30.8265 12.7133 30.9793 12.5984 31.1553L12.5297 31.2785H12.4953C12.0945 31.7593 11.5957 32.0001 11 32.0001C10.3238 32.0001 9.79103 31.7125 9.40191 31.1377L9.38437 31.1553V31.1201L2.18316 18.3601C0.727375 16.3653 0 14.1125 0 11.6017C0 8.49245 1.07113 5.8345 3.21441 3.62887C5.35666 1.42288 7.95231 0.320068 11 0.320068Z" fill="url(#paint0_linear)"/>
<rect x="2.63965" y="2.95996" width="16.72" height="16.72" fill="#D8D8D8" fill-opacity="0.01"/>
<path fill-rule="evenodd" clip-rule="evenodd" d="M12.3889 19.3708C9.83353 19.828 7.34131 19.0555 5.52734 17.479C7.53059 18.1884 9.73889 18.4091 11.9787 18.0466C12.0418 18.0308 12.0892 18.0308 12.1523 18.015C12.2784 17.9993 12.4204 17.9677 12.5466 17.9362C15.8748 17.148 18.1147 14.0108 17.815 10.6372C18.0673 12.8442 17.7361 14.9882 16.9632 16.9273C15.7644 18.1569 14.2028 19.0555 12.3889 19.3708Z" fill="white"/>
<path fill-rule="evenodd" clip-rule="evenodd" d="M5.52762 17.4788C4.13955 16.2807 3.14581 14.6254 2.79879 12.6863C2.32559 10.0064 3.19313 7.38943 4.944 5.56074C4.1711 7.49978 3.83985 9.64377 4.09223 11.8508C4.108 12.0557 4.13955 12.2449 4.1711 12.4499C4.83359 16.1388 8.30378 18.6138 11.979 18.0463C12.0421 18.0305 12.0894 18.0305 12.1525 18.0148C9.91268 18.5035 7.70438 18.267 5.52762 17.4788ZM5.00771 5.482C5.02348 5.45047 5.05503 5.43471 5.07081 5.41895C5.05503 5.43471 5.03926 5.45047 5.00771 5.482Z" fill="white"/>
<path fill-rule="evenodd" clip-rule="evenodd" d="M9.48602 3.10179C12.0413 2.64462 14.5336 3.41708 16.3475 4.99354C14.3443 4.28413 12.136 4.06343 9.89614 4.42602C9.83304 4.44178 9.78572 4.44178 9.72263 4.45755C6.17357 5.08813 3.74444 8.31986 4.05991 11.8511C3.80753 9.64409 4.13878 7.50011 4.91168 5.56106C6.11048 4.31566 7.67206 3.43285 9.48602 3.10179Z" fill="white"/>
<path fill-rule="evenodd" clip-rule="evenodd" d="M16.3476 4.99353C17.7356 6.19164 18.7294 7.84692 19.0764 9.78596C19.5496 12.4659 18.6821 15.0829 16.9312 16.9115C17.7041 14.9725 18.0353 12.8285 17.783 10.6215C17.7672 10.4165 17.7356 10.2274 17.7041 10.0224C17.0416 6.33352 13.5714 3.85848 9.89617 4.42601C9.83307 4.44177 9.78575 4.44177 9.72266 4.45754C11.9625 3.9846 14.1708 4.2053 16.3476 4.99353ZM16.8673 17.0059C16.8515 17.0374 16.82 17.0532 16.8042 17.0689C16.82 17.0532 16.8358 17.0216 16.8673 17.0059Z" fill="white"/>
<path fill-rule="evenodd" clip-rule="evenodd" d="M10.7479 6.90088C11.6628 9.88038 13.2717 12.5604 15.3853 14.7359H13.524C11.5997 12.4973 10.1485 9.83309 9.3125 6.90088H10.7479Z" fill="white"/>
<path fill-rule="evenodd" clip-rule="evenodd" d="M12.5452 6.90088C11.725 9.83309 10.2738 12.4973 8.34942 14.7359H6.50391C8.61757 12.5604 10.2265 9.88038 11.1256 6.90088H12.5452Z" fill="white"/>
<path fill-rule="evenodd" clip-rule="evenodd" d="M15.5428 13.0174C14.1705 13.7425 12.5932 14.1524 10.9369 14.1524C9.26494 14.1524 7.70336 13.7425 6.33105 13.0174V11.4409C7.67181 12.2764 9.24917 12.7651 10.9369 12.7651C12.6247 12.7651 14.2178 12.2764 15.5428 11.4409V13.0174Z" fill="white"/>
<defs>
<linearGradient id="paint0_linear" x1="8.31111" y1="-4.82793" x2="29.2231" y2="25.5611" gradientUnits="userSpaceOnUse">
<stop stop-color="#00893D"/>
<stop offset="1" stop-color="#63B31F"/>
</linearGradient>
</defs>
</svg>
