<svg width="23" height="25" viewBox="0 0 23 25" fill="none" xmlns="http://www.w3.org/2000/svg">
<path fill-rule="evenodd" clip-rule="evenodd" d="M5.10814 6.50003C5.10814 9.90578 7.96694 12.6667 11.4934 12.6667C15.02 12.6667 17.8788 9.90578 17.8788 6.50003C17.8788 3.09428 15.02 0.333374 11.4934 0.333374C7.96694 0.333374 5.10814 3.09428 5.10814 6.50003ZM22.9871 21.3V23.7667C22.9871 24.4478 22.4154 25 21.7101 25C21.0048 25 20.433 24.4478 20.433 23.7667V21.3C20.433 19.2566 18.7177 17.6 16.6018 17.6H6.38531C4.2694 17.6 2.55412 19.2566 2.55412 21.3V23.7667C2.55412 24.4478 1.98236 25 1.27706 25C0.57176 25 0 24.4478 0 23.7667V21.3C0 17.8943 2.8588 15.1333 6.38531 15.1333H16.6018C20.1283 15.1333 22.9871 17.8943 22.9871 21.3Z" fill="url(#paint0_linear)"/>
<defs>
<linearGradient id="paint0_linear" x1="1.98317" y1="-1.60476" x2="19.426" y2="27.9952" gradientUnits="userSpaceOnUse">
<stop stop-color="#79DBF1"/>
<stop offset="1" stop-color="#0056FC"/>
</linearGradient>
</defs>
</svg>
