<svg width="149" height="44" viewBox="0 0 149 44" fill="none" xmlns="http://www.w3.org/2000/svg">
<mask id="mask0" mask-type="alpha" maskUnits="userSpaceOnUse" x="0" y="0" width="149" height="44">
<rect width="148.05" height="43.5442" rx="6" fill="white"/>
</mask>
<g mask="url(#mask0)">
<rect width="148.05" height="43.5442" fill="#4A4A4A"/>
</g>
<path fill-rule="evenodd" clip-rule="evenodd" d="M59.0057 28.2117H61.2876L56.2923 14.4849H53.9816L48.9863 28.2117H51.1915L52.4667 24.5683H57.7401L59.0057 28.2117ZM55.0272 16.9772H55.1902L57.1941 22.7799H53.0137L55.0272 16.9772ZM67.3376 17.6811C65.9186 17.6811 64.6913 18.385 64.0585 19.5646H63.9051V17.8523H61.9204V31.5696H63.9818V26.642H64.1448C64.6913 27.736 65.8706 28.3828 67.3568 28.3828C69.9934 28.3828 71.6713 26.3186 71.6713 23.0272C71.6713 19.7358 69.9934 17.6811 67.3376 17.6811ZM66.7534 26.547C65.0276 26.547 63.9441 25.1962 63.9441 23.0368C63.9441 20.8679 65.0276 19.5171 66.763 19.5171C68.508 19.5171 69.553 20.8394 69.553 23.0273C69.553 25.2247 68.508 26.547 66.7534 26.547ZM78.0299 17.6811C76.6109 17.6811 75.3836 18.385 74.7508 19.5646H74.5974V17.8523H72.6127V31.5696H74.6741V26.642H74.8371C75.3836 27.736 76.563 28.3828 78.0491 28.3828C80.6857 28.3828 82.3636 26.3186 82.3636 23.0272C82.3636 19.7358 80.6857 17.6811 78.0299 17.6811ZM77.4436 26.547C75.7178 26.547 74.6344 25.1962 74.6344 23.0368C74.6344 20.8679 75.7178 19.5171 77.4532 19.5171C79.1982 19.5171 80.2433 20.8394 80.2433 23.0273C80.2433 25.2247 79.1982 26.547 77.4436 26.547ZM86.7269 24.5207C86.8803 26.9749 88.9417 28.5445 92.0099 28.5445C95.2889 28.5445 97.3407 26.8988 97.3407 24.2733C97.3407 22.2091 96.171 21.0676 93.333 20.4112L91.8085 20.0402C90.006 19.6216 89.2773 19.0604 89.2773 18.0806C89.2773 16.8439 90.4087 16.0354 92.1057 16.0354C93.7165 16.0354 94.8287 16.8249 95.03 18.0901H97.1202C96.9956 15.7785 94.9437 14.1519 92.1345 14.1519C89.1143 14.1519 87.1009 15.7785 87.1009 18.2233C87.1009 20.24 88.2418 21.4386 90.7443 22.0188L92.5276 22.4469C94.3589 22.875 95.1643 23.5028 95.1643 24.5492C95.1643 25.7668 93.8987 26.6515 92.1729 26.6515C90.3224 26.6515 89.0376 25.8239 88.8554 24.5207H86.7269ZM99.1141 15.3409V17.8998H97.3979V19.6216H99.1141V25.4719C99.1141 27.4695 100.025 28.2686 102.316 28.2686C102.719 28.2686 103.093 28.221 103.419 28.164V26.4612C103.131 26.4897 102.968 26.5087 102.652 26.5087C101.626 26.5087 101.176 26.0331 101.176 24.9487V19.6216H103.515V17.8998H101.176V15.3409H99.1141ZM108.626 26.5944C106.833 26.5944 105.826 25.2912 105.826 23.0272C105.826 20.7822 106.833 19.4695 108.626 19.4695C110.409 19.4695 111.426 20.7822 111.426 23.0272C111.426 25.2817 110.409 26.5944 108.626 26.5944ZM108.626 28.4112C111.675 28.4112 113.545 26.385 113.545 23.027C113.545 19.6881 111.666 17.6524 108.626 17.6524C105.577 17.6524 103.698 19.6881 103.698 23.027C103.698 26.385 105.568 28.4112 108.626 28.4112ZM114.485 28.2116H116.546V22.095C116.546 20.6395 117.649 19.6597 119.202 19.6597C119.547 19.6597 120.18 19.7263 120.343 19.7834V17.7667C120.122 17.7096 119.729 17.6811 119.432 17.6811C118.071 17.6811 116.92 18.4231 116.623 19.4409H116.469V17.8523H114.485V28.2116ZM124.984 19.3934C126.508 19.3934 127.506 20.4493 127.553 22.076H122.28C122.395 20.4588 123.459 19.3934 124.984 19.3934ZM127.544 25.4147C127.161 26.2233 126.307 26.6704 125.061 26.6704C123.412 26.6704 122.348 25.5193 122.28 23.7024V23.5883H129.654V22.8748C129.654 19.6215 127.899 17.6524 124.994 17.6524C122.05 17.6524 120.181 19.7547 120.181 23.0651C120.181 26.3755 122.012 28.4112 125.003 28.4112C127.391 28.4112 129.059 27.2697 129.529 25.4147H127.544Z" fill="white"/>
<path fill-rule="evenodd" clip-rule="evenodd" d="M34.4736 21.4703C34.4434 18.1801 37.2219 16.5794 37.3489 16.5049C35.7754 14.2559 33.3364 13.9486 32.4794 13.9241C30.4309 13.7128 28.444 15.1257 27.4005 15.1257C26.3362 15.1257 24.7293 13.9445 22.9975 13.9793C20.7689 14.0129 18.684 15.2778 17.5406 17.2419C15.1808 21.2468 16.9407 27.132 19.2016 30.3692C20.3325 31.9556 21.6541 33.7247 23.3838 33.6624C25.0761 33.5951 25.7082 32.6048 27.7504 32.6048C29.7738 32.6048 30.3674 33.6624 32.1315 33.6216C33.9477 33.5951 35.0912 32.0301 36.1825 30.4294C37.4895 28.6143 38.0144 26.8227 38.0352 26.7308C37.9935 26.7175 34.509 25.4139 34.4736 21.4703Z" fill="white"/>
<path fill-rule="evenodd" clip-rule="evenodd" d="M31.1399 11.7947C32.0501 10.6789 32.6729 9.16084 32.5 7.62036C31.1826 7.67753 29.5352 8.51361 28.5864 9.60491C27.7471 10.5666 26.9973 12.1428 27.191 13.6251C28.6708 13.7333 30.1902 12.8931 31.1399 11.7947Z" fill="white"/>
</svg>
