<svg width="28" height="24" viewBox="0 0 28 24" fill="none" xmlns="http://www.w3.org/2000/svg">
<path d="M11.3009 19.4286C10.0548 19.4286 9.04102 20.4538 9.04102 21.714C9.04102 22.9745 10.0548 24 11.3009 24C12.5471 24 13.5609 22.9745 13.5609 21.714C13.5609 20.4538 12.5472 19.4286 11.3009 19.4286Z" fill="#00893D"/>
<path d="M20.339 19.4286C19.0929 19.4286 18.0791 20.4538 18.0791 21.714C18.0791 22.9745 19.0929 24 20.339 24C21.5851 24 22.599 22.9745 22.599 21.714C22.599 20.4538 21.5852 19.4286 20.339 19.4286Z" fill="#00893D"/>
<path d="M18.5529 13.6873C18.5869 13.6908 18.6206 13.6925 18.6541 13.6925C19.1465 13.6925 19.5691 13.3219 19.6209 12.8242L20.0696 8.50575C20.1249 7.97401 19.7363 7.49853 19.2017 7.44369C18.6668 7.38962 18.1888 7.77517 18.1336 8.30678L17.6849 12.6252C17.6296 13.1568 18.0183 13.6323 18.5529 13.6873Z" fill="#00893D"/>
<mask id="path-4-inside-1" fill="white">
<path fill-rule="evenodd" clip-rule="evenodd" d="M26.1167 3.8391C26.418 3.8391 26.7023 3.97793 26.8865 4.21497C27.0708 4.452 27.1343 4.76051 27.0586 5.05032L24.0468 16.5664C23.9352 16.9929 23.548 17.2906 23.1049 17.2906H8.97758C8.53446 17.2906 8.14726 16.9929 8.03566 16.5664L5.03176 5.07974C5.02618 5.06077 5.02112 5.04155 5.01671 5.02219L4.20949 1.93548H0.973186C0.435728 1.93548 0 1.50219 0 0.967741C0 0.43329 0.435728 0 0.973186 0H4.96195C5.40508 0 5.79228 0.297677 5.90387 0.724129L6.71836 3.8391H26.1167ZM9.73016 15.3549H22.3525L24.858 5.77427H7.22466L9.73016 15.3549Z"/>
</mask>
<path fill-rule="evenodd" clip-rule="evenodd" d="M26.1167 3.8391C26.418 3.8391 26.7023 3.97793 26.8865 4.21497C27.0708 4.452 27.1343 4.76051 27.0586 5.05032L24.0468 16.5664C23.9352 16.9929 23.548 17.2906 23.1049 17.2906H8.97758C8.53446 17.2906 8.14726 16.9929 8.03566 16.5664L5.03176 5.07974C5.02618 5.06077 5.02112 5.04155 5.01671 5.02219L4.20949 1.93548H0.973186C0.435728 1.93548 0 1.50219 0 0.967741C0 0.43329 0.435728 0 0.973186 0H4.96195C5.40508 0 5.79228 0.297677 5.90387 0.724129L6.71836 3.8391H26.1167ZM9.73016 15.3549H22.3525L24.858 5.77427H7.22466L9.73016 15.3549Z" fill="#00893D"/>
<path d="M26.8865 4.21497L26.4918 4.52183V4.52183L26.8865 4.21497ZM27.0586 5.05032L27.5423 5.17683L27.5424 5.17661L27.0586 5.05032ZM24.0468 16.5664L24.5305 16.693L24.5305 16.693L24.0468 16.5664ZM8.03566 16.5664L7.55193 16.6929L7.55195 16.693L8.03566 16.5664ZM5.03176 5.07974L5.5155 4.95324L5.51358 4.94591L5.51144 4.93864L5.03176 5.07974ZM5.01671 5.02219L5.5042 4.91106L5.50244 4.90334L5.50044 4.89569L5.01671 5.02219ZM4.20949 1.93548L4.69322 1.80898L4.59554 1.43548H4.20949V1.93548ZM5.90387 0.724129L6.3876 0.597643L6.38758 0.597552L5.90387 0.724129ZM6.71836 3.8391L6.23462 3.96558L6.33229 4.3391H6.71836V3.8391ZM22.3525 15.3549V15.8549H22.7386L22.8362 15.4814L22.3525 15.3549ZM9.73016 15.3549L9.24642 15.4814L9.3441 15.8549H9.73016V15.3549ZM24.858 5.77427L25.3417 5.90077L25.5056 5.27427H24.858V5.77427ZM7.22466 5.77427V5.27427H6.57708L6.74092 5.90077L7.22466 5.77427ZM27.2813 3.9081C27.002 3.54875 26.5717 3.3391 26.1167 3.3391V4.3391C26.2642 4.3391 26.4026 4.40712 26.4918 4.52183L27.2813 3.9081ZM27.5424 5.17661C27.6574 4.73618 27.5608 4.26764 27.2813 3.9081L26.4918 4.52183C26.5808 4.63636 26.6111 4.78484 26.5748 4.92403L27.5424 5.17661ZM24.5305 16.693L27.5423 5.17683L26.5749 4.92381L23.5631 16.4399L24.5305 16.693ZM23.1049 17.7906C23.7737 17.7906 24.3609 17.3411 24.5305 16.693L23.5631 16.4399C23.5095 16.6447 23.3223 16.7906 23.1049 16.7906V17.7906ZM8.97758 17.7906H23.1049V16.7906H8.97758V17.7906ZM7.55195 16.693C7.72154 17.3411 8.30876 17.7906 8.97758 17.7906V16.7906C8.76015 16.7906 8.57298 16.6447 8.51938 16.4399L7.55195 16.693ZM4.54803 5.20624L7.55193 16.6929L8.5194 16.4399L5.5155 4.95324L4.54803 5.20624ZM4.52922 5.13332C4.53609 5.16345 4.5438 5.19269 4.55208 5.22084L5.51144 4.93864C5.50856 4.92886 5.50616 4.91964 5.5042 4.91106L4.52922 5.13332ZM3.72575 2.06199L4.53298 5.14869L5.50044 4.89569L4.69322 1.80898L3.72575 2.06199ZM0.973186 2.43548H4.20949V1.43548H0.973186V2.43548ZM-0.5 0.967741C-0.5 1.78098 0.162234 2.43548 0.973186 2.43548V1.43548C0.709222 1.43548 0.5 1.22341 0.5 0.967741H-0.5ZM0.973186 -0.5C0.162234 -0.5 -0.5 0.154507 -0.5 0.967741H0.5C0.5 0.712074 0.709222 0.5 0.973186 0.5V-0.5ZM4.96195 -0.5H0.973186V0.5H4.96195V-0.5ZM6.38758 0.597552C6.218 -0.0505222 5.63077 -0.5 4.96195 -0.5V0.5C5.17938 0.5 5.36656 0.645877 5.42015 0.850705L6.38758 0.597552ZM7.2021 3.71261L6.3876 0.597643L5.42013 0.850615L6.23462 3.96558L7.2021 3.71261ZM26.1167 3.3391H6.71836V4.3391H26.1167V3.3391ZM22.3525 14.8549H9.73016V15.8549H22.3525V14.8549ZM24.3743 5.64777L21.8688 15.2284L22.8362 15.4814L25.3417 5.90077L24.3743 5.64777ZM7.22466 6.27427H24.858V5.27427H7.22466V6.27427ZM10.2139 15.2284L7.70839 5.64777L6.74092 5.90077L9.24642 15.4814L10.2139 15.2284Z" fill="#00893D" mask="url(#path-4-inside-1)"/>
</svg>
