<svg width="27" height="27" viewBox="0 0 27 27" fill="none" xmlns="http://www.w3.org/2000/svg">
<path d="M24.543 5.60588C24.4725 5.38922 24.3353 5.20041 24.151 5.06644C23.9668 4.93247 23.7448 4.86021 23.517 4.86H21.06V1.08C21.06 0.482625 20.5774 0 19.98 0H7.02C6.42263 0 5.94 0.482625 5.94 1.08V4.86H3.483C3.25504 4.8597 3.03287 4.93175 2.84849 5.06579C2.66411 5.19984 2.52703 5.38894 2.457 5.60588L0 13.1625V25.92C0 26.5174 0.482625 27 1.08 27H25.92C26.5174 27 27 26.5174 27 25.92V13.1625L24.543 5.60588ZM18.495 17.415C18.495 17.5635 18.3735 17.685 18.225 17.685H14.58V21.33C14.58 21.4785 14.4585 21.6 14.31 21.6H12.69C12.5415 21.6 12.42 21.4785 12.42 21.33V17.685H8.775C8.6265 17.685 8.505 17.5635 8.505 17.415V15.795C8.505 15.6465 8.6265 15.525 8.775 15.525H12.42V11.88C12.42 11.7315 12.5415 11.61 12.69 11.61H14.31C14.4585 11.61 14.58 11.7315 14.58 11.88V15.525H18.225C18.3735 15.525 18.495 15.6465 18.495 15.795V17.415ZM18.63 4.86H8.37V2.43H18.63V4.86Z" fill="url(#paint0_linear)"/>
<defs>
<linearGradient id="paint0_linear" x1="0" y1="0" x2="0" y2="27" gradientUnits="userSpaceOnUse">
<stop stop-color="#FBB03B"/>
<stop offset="1" stop-color="#D4145A"/>
</linearGradient>
</defs>
</svg>
