<svg width="145" height="44" viewBox="0 0 145 44" fill="none" xmlns="http://www.w3.org/2000/svg">
<g clip-path="url(#clip0)">
<mask id="mask0" mask-type="alpha" maskUnits="userSpaceOnUse" x="0" y="0" width="145" height="44">
<rect y="0.544189" width="145" height="43" rx="6" fill="white"/>
</mask>
<g mask="url(#mask0)">
<rect y="0.544189" width="145" height="43" fill="#4A4A4A"/>
</g>
<path fill-rule="evenodd" clip-rule="evenodd" d="M109.926 14.3494H104.271V22.9276L109.926 22.9276C109.926 22.9276 113.18 22.3741 113.18 18.6385C113.18 14.9029 109.926 14.3494 109.926 14.3494ZM109.207 16.4247H105.369V21.0282H109.207C109.207 21.0282 110.954 21.0282 110.954 18.7264C110.954 16.4247 109.207 16.4247 109.207 16.4247Z" fill="white"/>
<rect x="103.772" y="14.3499" width="1.99463" height="13.955" fill="white"/>
<rect x="114.345" y="14.3494" width="1.99463" height="13.955" fill="white"/>
<path fill-rule="evenodd" clip-rule="evenodd" d="M121.668 19.0342C118.878 19.0342 117.948 20.9498 117.948 20.9498L119.61 21.9312C119.61 21.9312 120.011 20.9498 121.827 20.9498C123.144 20.9498 123.587 21.9407 123.73 22.4849V22.9003C123.151 22.6188 121.897 22.1759 120.108 22.4419C117.68 22.8027 117.728 24.9973 117.736 25.3437C117.736 25.358 117.736 25.3691 117.736 25.3769C117.736 25.5723 117.738 28.4709 120.916 28.2725C122.303 28.186 123.181 27.7599 123.73 27.307V28.2999H125.725V22.2639C125.726 22.2531 125.727 22.242 125.727 22.2308C125.727 21.4254 125.136 19.0342 121.668 19.0342ZM119.612 25.4401C119.746 23.2825 123.588 24.3177 123.588 24.3177C123.588 24.3177 123.64 24.5458 123.64 25.0321C123.298 26.5616 119.478 27.5976 119.612 25.4401Z" fill="white"/>
<path fill-rule="evenodd" clip-rule="evenodd" d="M130.466 25.4078L127.907 19.3333H125.912L129.468 27.7753L127.608 32.1917H129.603L134.999 19.3815H133.004L130.466 25.4078Z" fill="white"/>
<path fill-rule="evenodd" clip-rule="evenodd" d="M95.0879 19.0342C98.432 19.0342 99.3066 22.5953 99.3066 22.5953L92.9981 25.201C92.9981 25.201 93.4055 26.6422 95.3022 26.6519C96.7874 26.6594 97.6258 25.3362 97.6258 25.3362L99.2263 26.4195C99.2263 26.4195 97.9348 28.5072 95.2896 28.5072C92.0391 28.5072 90.6074 25.6664 90.6074 23.8215C90.6074 22.044 91.7438 19.0342 95.0879 19.0342ZM94.8957 20.8726C96.113 20.65 96.9066 21.8569 96.9066 21.8569L92.6449 23.5955C92.6449 23.5955 92.3209 21.3434 94.8957 20.8726Z" fill="white"/>
<rect x="87.6162" y="14.3494" width="2.1102" height="13.9256" fill="white"/>
<path fill-rule="evenodd" clip-rule="evenodd" d="M84.2385 20.2059V19.3368L86.1891 19.3537V28.1403C86.1891 30.3853 84.8518 32.7551 81.7035 32.7551C78.5552 32.7551 77.5384 29.9671 77.5384 29.9671L79.3299 29.2141C79.3299 29.2141 79.8763 30.9323 81.7966 30.9323C83.9834 30.9323 84.2387 28.9438 84.2387 28.2632V27.3096C84.2387 27.3096 83.482 28.4932 81.6026 28.4932C79.565 28.4932 77.1436 26.7484 77.1436 23.7737C77.1436 20.799 79.4236 19.0975 81.6262 19.0357C83.3905 18.9861 84.2385 20.2059 84.2385 20.2059ZM81.7699 26.7076C83.1924 26.7076 84.3456 25.4053 84.3456 23.7987C84.3456 22.1922 83.1924 20.8898 81.7699 20.8898C80.3474 20.8898 79.1942 22.1922 79.1942 23.7987C79.1942 25.4053 80.3474 26.7076 81.7699 26.7076Z" fill="white"/>
<path fill-rule="evenodd" clip-rule="evenodd" d="M71.5204 28.5036C74.1426 28.5036 76.2684 26.3838 76.2684 23.7689C76.2684 21.154 74.1426 19.0342 71.5204 19.0342C68.8982 19.0342 66.7725 21.154 66.7725 23.7689C66.7725 26.3838 68.8982 28.5036 71.5204 28.5036ZM71.4895 26.6468C72.9634 26.6468 74.1583 25.3583 74.1583 23.7689C74.1583 22.1794 72.9634 20.8909 71.4895 20.8909C70.0156 20.8909 68.8207 22.1794 68.8207 23.7689C68.8207 25.3583 70.0156 26.6468 71.4895 26.6468Z" fill="white"/>
<path fill-rule="evenodd" clip-rule="evenodd" d="M61.247 28.5036C63.8692 28.5036 65.9949 26.3838 65.9949 23.7689C65.9949 21.154 63.8692 19.0342 61.247 19.0342C58.6248 19.0342 56.499 21.154 56.499 23.7689C56.499 26.3838 58.6248 28.5036 61.247 28.5036ZM61.2174 26.6468C62.6913 26.6468 63.8862 25.3583 63.8862 23.7689C63.8862 22.1794 62.6913 20.8909 61.2174 20.8909C59.7434 20.8909 58.5486 22.1794 58.5486 23.7689C58.5486 25.3583 59.7434 26.6468 61.2174 26.6468Z" fill="white"/>
<path fill-rule="evenodd" clip-rule="evenodd" d="M48.9883 20.5356H55.2568L55.1948 22.5162H48.9883V20.5356Z" fill="white"/>
<path fill-rule="evenodd" clip-rule="evenodd" d="M55.8683 21.1854C55.8683 25.2361 52.6608 28.5198 48.7042 28.5198C44.7475 28.5198 41.54 25.2361 41.54 21.1854C41.54 17.1348 44.7475 13.8511 48.7042 13.8511C50.7148 13.8511 52.5319 14.699 53.8331 16.0646L52.4526 17.4413C51.5194 16.485 50.2309 15.8936 48.8077 15.8936C45.9592 15.8936 43.65 18.2628 43.65 21.1854C43.65 24.1079 45.9592 26.4771 48.8077 26.4771C51.6563 26.4771 53.9655 24.1079 53.9655 21.1854C53.9655 20.9654 53.9524 20.7485 53.927 20.5356H55.8406C55.859 20.7497 55.8683 20.9664 55.8683 21.1854Z" fill="white"/>
<path fill-rule="evenodd" clip-rule="evenodd" d="M29.1412 21.0092C30.8392 21.9617 30.8392 24.4058 29.1412 25.3583L15.4621 33.0317C13.8001 33.9641 11.749 32.7629 11.749 30.8572L11.749 15.5106C11.749 13.6049 13.8001 12.4037 15.4621 13.336L29.1412 21.0092Z" fill="url(#paint0_linear)"/>
<mask id="mask1" mask-type="alpha" maskUnits="userSpaceOnUse" x="11" y="13" width="20" height="21">
<path fill-rule="evenodd" clip-rule="evenodd" d="M29.1412 21.0092C30.8392 21.9617 30.8392 24.4058 29.1412 25.3583L15.4621 33.0317C13.8001 33.9641 11.749 32.7629 11.749 30.8572L11.749 15.5106C11.749 13.6049 13.8001 12.4037 15.4621 13.336L29.1412 21.0092Z" fill="white"/>
</mask>
<g mask="url(#mask1)">
<path fill-rule="evenodd" clip-rule="evenodd" d="M10.7494 10.1748L23.2522 22.5948L10.5879 35.5057L10.7494 10.1748Z" fill="url(#paint1_linear)"/>
<path fill-rule="evenodd" clip-rule="evenodd" d="M8.17773 7.61792L23.2501 22.5984L27.7313 18.3257L8.17773 7.61792Z" fill="url(#paint2_linear)"/>
<path fill-rule="evenodd" clip-rule="evenodd" d="M23.2522 22.5955L30.1125 29.5066L9.61816 36.4177L23.2522 22.5955Z" fill="url(#paint3_linear)"/>
</g>
</g>
<defs>
<linearGradient id="paint0_linear" x1="31.749" y1="18.9032" x2="23.9665" y2="18.9032" gradientUnits="userSpaceOnUse">
<stop stop-color="#FBDA09"/>
<stop offset="1" stop-color="#FFBC00"/>
</linearGradient>
<linearGradient id="paint1_linear" x1="11.8159" y1="33.7651" x2="21.0985" y2="32.4665" gradientUnits="userSpaceOnUse">
<stop stop-color="#01E2FF"/>
<stop offset="1" stop-color="#01C4FF"/>
</linearGradient>
<linearGradient id="paint2_linear" x1="5.93325" y1="15.3885" x2="15.1244" y2="27.3817" gradientUnits="userSpaceOnUse">
<stop stop-color="#28D781"/>
<stop offset="1" stop-color="#02F076"/>
</linearGradient>
<linearGradient id="paint3_linear" x1="17.3263" y1="20.5553" x2="9.47338" y2="33.8943" gradientUnits="userSpaceOnUse">
<stop stop-color="#F2414E"/>
<stop offset="1" stop-color="#E02554"/>
</linearGradient>
<clipPath id="clip0">
<rect width="145" height="43" fill="white" transform="translate(0 0.544189)"/>
</clipPath>
</defs>
</svg>
